<?xml version="1.0" encoding="UTF-8" standalone="no"?>
<!-- Created with Inkscape (http://www.inkscape.org/) -->

<svg
   xmlns:dc="http://purl.org/dc/elements/1.1/"
   xmlns:cc="http://creativecommons.org/ns#"
   xmlns:rdf="http://www.w3.org/1999/02/22-rdf-syntax-ns#"
   xmlns:svg="http://www.w3.org/2000/svg"
   xmlns="http://www.w3.org/2000/svg"
   xmlns:sodipodi="http://sodipodi.sourceforge.net/DTD/sodipodi-0.dtd"
   xmlns:inkscape="http://www.inkscape.org/namespaces/inkscape"
   width="186.2632mm"
   height="41.578575mm"
   viewBox="0 0 186.2632 41.578575"
   version="1.1"
   id="svg8"
   inkscape:version="0.92.5 (2060ec1f9f, 2020-04-08)"
   sodipodi:docname="logo.svg">
  <defs
     id="defs2" />
  <sodipodi:namedview
     id="base"
     pagecolor="#ffffff"
     bordercolor="#666666"
     borderopacity="1.0"
     inkscape:pageopacity="0.0"
     inkscape:pageshadow="2"
     inkscape:zoom="1.4"
     inkscape:cx="230.42812"
     inkscape:cy="156.3744"
     inkscape:document-units="mm"
     inkscape:current-layer="layer2"
     showgrid="false"
     fit-margin-top="0"
     fit-margin-left="0"
     fit-margin-right="0"
     fit-margin-bottom="0"
     inkscape:window-width="1920"
     inkscape:window-height="1175"
     inkscape:window-x="0"
     inkscape:window-y="0"
     inkscape:window-maximized="1" />
  <metadata
     id="metadata5">
    <rdf:RDF>
      <cc:Work
         rdf:about="">
        <dc:format>image/svg+xml</dc:format>
        <dc:type
           rdf:resource="http://purl.org/dc/dcmitype/StillImage" />
        <dc:title />
      </cc:Work>
    </rdf:RDF>
  </metadata>
  <g
     inkscape:groupmode="layer"
     id="layer2"
     inkscape:label="Layer 2"
     transform="translate(-90.489387,-124.15392)">
    <path
       sodipodi:nodetypes="ccccccc"
       inkscape:connector-curvature="0"
       id="path896"
       d="m 92.690001,131.84827 9.177009,-4.58851 h 9.177 l 9.17702,4.58851 v 30.39884 H 92.690001 Z"
       style="opacity:1;fill:none;fill-opacity:1;stroke:#ffffff;stroke-width:4.40122843;stroke-linecap:butt;stroke-linejoin:round;stroke-miterlimit:4;stroke-dasharray:none;stroke-dashoffset:0;stroke-opacity:1" />
    <path
       style="opacity:1;fill:#ee9400;fill-opacity:1;stroke:#000000;stroke-width:3.30092144;stroke-linecap:butt;stroke-linejoin:round;stroke-miterlimit:4;stroke-dasharray:none;stroke-dashoffset:0;stroke-opacity:1"
       d="m 92.690001,131.84827 9.177009,-4.58851 h 9.177 l 9.17702,4.58851 v 30.39884 H 92.690001 Z"
       id="rect826"
       inkscape:connector-curvature="0"
       sodipodi:nodetypes="ccccccc" />
    <path
       style="fill:none;stroke:#000000;stroke-width:3.30092144;stroke-linecap:butt;stroke-linejoin:miter;stroke-miterlimit:4;stroke-dasharray:none;stroke-opacity:1"
       d="m 98.268017,140.5089 c 4.464393,0.55148 12.209253,-11.17459 16.635593,-10.56605 4.42634,0.60853 4.74391,2.91624 4.74391,5.28302 0,2.36679 -0.31757,4.67449 -4.74391,5.28303 -4.42634,0.60854 -12.1712,-11.11754 -16.635593,-10.56605 -4.464395,0.55148 -5.012422,2.85553 -5.012422,5.28302 0,2.4275 0.548027,4.73154 5.012422,5.28303 z"
       id="path835"
       inkscape:connector-curvature="0"
       sodipodi:nodetypes="zzzzzzz" />
    <path
       sodipodi:nodetypes="zzzzzzz"
       inkscape:connector-curvature="0"
       id="path840"
       d="m 98.268017,151.16339 c 4.464393,0.55149 12.209253,-11.17458 16.635593,-10.56605 4.42634,0.60854 4.74391,2.91625 4.74391,5.28303 0,2.36678 -0.31757,4.67449 -4.74391,5.28302 -4.42634,0.60854 -12.1712,-11.11753 -16.635593,-10.56605 -4.464395,0.55149 -5.012422,2.85553 -5.012422,5.28303 0,2.4275 0.548027,4.73154 5.012422,5.28302 z"
       style="fill:none;stroke:#000000;stroke-width:3.30092144;stroke-linecap:butt;stroke-linejoin:miter;stroke-miterlimit:4;stroke-dasharray:none;stroke-opacity:1" />
    <path
       style="fill:none;stroke:#000000;stroke-width:3.30092144;stroke-linecap:butt;stroke-linejoin:miter;stroke-miterlimit:4;stroke-dasharray:none;stroke-opacity:1"
       d="m 98.268017,161.81788 c 4.464393,0.55148 12.209253,-11.17459 16.635593,-10.56606 4.42634,0.60854 4.74391,2.91625 4.74391,5.28303 0,2.36678 -0.31757,4.67449 -4.74391,5.28303 -4.42634,0.60853 -12.1712,-11.11754 -16.635593,-10.56606 -4.464395,0.55149 -5.012422,2.85553 -5.012422,5.28303 0,2.4275 0.548027,4.73154 5.012422,5.28303 z"
       id="path842"
       inkscape:connector-curvature="0"
       sodipodi:nodetypes="zzzzzzz" />
    <path
       sodipodi:nodetypes="zczzzzz"
       inkscape:connector-curvature="0"
       id="path852"
       d="m 98.377585,140.61877 c 4.464395,0.55148 12.209255,-11.17459 16.635595,-10.56606 4.42634,0.60854 4.74391,2.91625 4.74391,5.28303 0,2.36678 -0.31757,4.67449 -4.74391,5.28303 -4.42634,0.60853 -12.1712,-11.11754 -16.635595,-10.56606 -4.464394,0.55149 -5.012421,2.85553 -5.012421,5.28303 0,2.4275 0.548027,4.73154 5.012421,5.28303 z"
       style="fill:none;stroke:#000000;stroke-width:3.30092144;stroke-linecap:butt;stroke-linejoin:miter;stroke-miterlimit:4;stroke-dasharray:none;stroke-opacity:1" />
    <g
       aria-label="Grapeshot"
       style="font-style:normal;font-variant:normal;font-weight:bold;font-stretch:normal;font-size:31.59800339px;line-height:1.25;font-family:'Accanthis ADF Std No3';-inkscape-font-specification:'Accanthis ADF Std No3, Bold';font-variant-ligatures:normal;font-variant-caps:normal;font-variant-numeric:normal;font-feature-settings:normal;text-align:center;letter-spacing:0px;word-spacing:0px;writing-mode:lr-tb;text-anchor:middle;fill:#000000;fill-opacity:1;stroke:#ffffff;stroke-width:0.5;stroke-miterlimit:4;stroke-dasharray:none;stroke-opacity:1"
       id="text856">
      <path
         d="m 144.89719,154.92876 v -7.20434 c 0,-0.18959 0.0948,-0.15799 0.28438,-0.15799 h 0.78995 c 0.37918,-0.41078 0.50557,-0.60037 0.50557,-0.94794 0,-0.22119 -0.0948,-0.60037 -0.60036,-0.94794 h -5.94043 c -0.37917,0.41077 -0.50556,0.66355 -0.50556,0.94794 0,0.28438 0.0632,0.47397 0.50556,0.94794 h 0.75836 c 0.22118,0 0.28438,-0.0632 0.28438,0.15799 v 7.17274 c -0.88475,0.60036 -2.24346,1.04274 -3.31779,1.04274 -5.71924,0 -8.05749,-5.84563 -8.05749,-10.61693 0,-3.44419 2.55944,-8.18389 6.50919,-8.18389 3.94975,0 4.55011,3.03341 6.60398,3.03341 0.85314,0 1.5483,-0.63196 1.5483,-1.39031 0,-2.11707 -5.78243,-3.63377 -7.58352,-3.63377 -7.01476,0 -11.37528,5.52965 -11.37528,11.31209 0,5.75083 4.36052,11.47007 11.37528,11.47007 2.81222,0 5.90883,-1.01114 8.21548,-3.00181 z"
         style="font-style:normal;font-variant:normal;font-weight:bold;font-stretch:normal;font-size:31.59800339px;font-family:'Accanthis ADF Std No3';-inkscape-font-specification:'Accanthis ADF Std No3, Bold';font-variant-ligatures:normal;font-variant-caps:normal;font-variant-numeric:normal;font-feature-settings:normal;text-align:center;writing-mode:lr-tb;text-anchor:middle;stroke:#ffffff;stroke-width:0.5;stroke-miterlimit:4;stroke-dasharray:none;stroke-opacity:1"
         id="path860" />
      <path
         d="m 159.74823,146.80807 c 0.47397,0 1.83269,-0.31598 1.83269,-1.29551 0,-1.54831 -2.08547,-2.14867 -3.47578,-2.14867 -1.86429,0 -3.2862,1.16913 -4.36053,2.36985 v -0.34758 c 0,-0.41077 0.0948,-0.82154 0.63196,-2.02227 -3.0966,0 -4.32893,1.89588 -6.54079,1.89588 l 2.08547,1.83269 v 8.27867 c 0,0.0632 -0.0948,0.31598 -0.15799,0.31598 h -1.16912 c -0.1264,0.15799 -0.44238,0.60036 -0.44238,1.01114 0,0.18959 0.1264,0.44237 0.41078,0.88474 h 6.44599 c 0.44237,-0.37917 0.56876,-0.66356 0.56876,-0.91634 0,-0.25278 -0.0632,-0.53717 -0.56876,-0.97954 H 153.871 c -0.0632,0 -0.12639,-0.25278 -0.12639,-0.31598 v -7.26754 c 1.04273,-1.5799 2.27506,-2.08547 3.76016,-2.11706 1.01114,0 0.75836,0.82154 2.24346,0.82154 z"
         style="font-style:normal;font-variant:normal;font-weight:bold;font-stretch:normal;font-size:31.59800339px;font-family:'Accanthis ADF Std No3';-inkscape-font-specification:'Accanthis ADF Std No3, Bold';font-variant-ligatures:normal;font-variant-caps:normal;font-variant-numeric:normal;font-feature-settings:normal;text-align:center;writing-mode:lr-tb;text-anchor:middle;stroke:#ffffff;stroke-width:0.5;stroke-miterlimit:4;stroke-dasharray:none;stroke-opacity:1"
         id="path862" />
      <path
         d="m 171.34461,154.54958 c 0,0.53717 -1.6431,1.45351 -2.65423,1.45351 -1.35872,0 -2.43305,-0.75835 -2.43305,-1.92748 0,-0.75835 0.28438,-1.80108 1.16913,-2.18026 l 3.91815,-1.26392 z m 6.00362,0.66356 c -0.41077,0.56877 -0.85315,0.78995 -1.23232,0.78995 -0.53717,-0.0316 -0.94794,-0.47397 -0.94794,-1.04273 v -7.23594 c 0,-3.66537 -3.69697,-4.36053 -6.60398,-4.36053 -1.6115,0 -5.05569,1.29552 -5.05569,3.06501 0,0.72675 0.72676,1.42191 1.6431,1.42191 1.67469,0 1.6431,-2.55944 3.91815,-2.55944 1.6431,0 2.27506,1.32712 2.27506,3.00181 v 0.91634 l -5.27687,1.6747 c -2.46464,0.78995 -3.53897,1.73789 -3.53897,3.31779 v 0.0632 c 0,2.84382 3.28619,3.63377 5.62444,3.63377 1.23232,0 2.55944,-0.34758 3.53898,-1.07433 0.50557,0.66356 1.5799,1.07433 2.43304,1.07433 1.42191,0 3.03341,-0.41077 3.223,-2.68583 z"
         style="font-style:normal;font-variant:normal;font-weight:bold;font-stretch:normal;font-size:31.59800339px;font-family:'Accanthis ADF Std No3';-inkscape-font-specification:'Accanthis ADF Std No3, Bold';font-variant-ligatures:normal;font-variant-caps:normal;font-variant-numeric:normal;font-feature-settings:normal;text-align:center;writing-mode:lr-tb;text-anchor:middle;stroke:#ffffff;stroke-width:0.5;stroke-miterlimit:4;stroke-dasharray:none;stroke-opacity:1"
         id="path864" />
      <path
         d="m 191.4725,151.54777 c 0,1.92748 -1.5483,4.39213 -3.53898,4.39213 -1.13752,0 -2.33825,-0.47397 -3.25459,-1.16913 v -7.52032 c 0,-1.16913 1.23232,-1.92748 2.71743,-1.92748 3.31779,0 4.07614,3.1598 4.07614,6.2248 z m 4.17094,-0.72675 c 0,-3.79176 -2.93862,-7.45713 -7.61512,-7.45713 -1.23232,0 -2.52784,0.60036 -3.41259,0.94794 0.0632,-0.25278 0.18959,-0.56876 0.25279,-0.94794 -2.18026,0 -3.79176,1.70629 -6.4144,1.80109 l 2.40145,2.05387 v 15.98859 c 0,0.0948 -0.0948,0.37917 -0.15799,0.37917 h -1.16912 c -0.18959,0.22119 -0.47397,0.56877 -0.47397,0.94794 0,0.18959 0.0948,0.47397 0.44237,0.94794 h 6.44599 c 0.41077,-0.37917 0.53717,-0.69515 0.53717,-0.94794 0,-0.25278 -0.0632,-0.53716 -0.53717,-0.94794 h -1.13753 c -0.0632,0 -0.12639,-0.28438 -0.12639,-0.37917 v -6.25641 c 1.01114,0.53717 2.33825,0.94794 3.34939,0.94794 4.7081,0 7.61512,-3.31779 7.61512,-7.07795 z"
         style="font-style:normal;font-variant:normal;font-weight:bold;font-stretch:normal;font-size:31.59800339px;font-family:'Accanthis ADF Std No3';-inkscape-font-specification:'Accanthis ADF Std No3, Bold';font-variant-ligatures:normal;font-variant-caps:normal;font-variant-numeric:normal;font-feature-settings:normal;text-align:center;writing-mode:lr-tb;text-anchor:middle;stroke:#ffffff;stroke-width:0.5;stroke-miterlimit:4;stroke-dasharray:none;stroke-opacity:1"
         id="path866" />
      <path
         d="m 208.09303,146.74488 -5.56125,2.40145 c 0.18959,-1.6747 0.82155,-3.85496 2.90702,-3.85496 0.88474,0 2.18026,0.72675 2.65423,1.45351 z m 3.91815,8.40507 c 0,-0.50557 -0.44237,-1.07434 -1.13753,-1.07434 -1.10593,0 -1.76949,1.92748 -4.26573,1.92748 -2.59103,0 -3.94975,-2.24346 -4.10774,-4.61331 l 10.45894,-4.55011 c -2.08547,-2.49624 -4.23413,-3.47578 -6.98316,-3.47578 -4.7397,0 -7.61512,3.63377 -7.61512,7.26754 0,3.63377 2.97022,7.26754 7.61512,7.26754 3.2546,0 6.03522,-1.64309 6.03522,-2.74902 z"
         style="font-style:normal;font-variant:normal;font-weight:bold;font-stretch:normal;font-size:31.59800339px;font-family:'Accanthis ADF Std No3';-inkscape-font-specification:'Accanthis ADF Std No3, Bold';font-variant-ligatures:normal;font-variant-caps:normal;font-variant-numeric:normal;font-feature-settings:normal;text-align:center;writing-mode:lr-tb;text-anchor:middle;stroke:#ffffff;stroke-width:0.5;stroke-miterlimit:4;stroke-dasharray:none;stroke-opacity:1"
         id="path868" />
      <path
         d="m 227.02021,153.66484 c 0,-4.92929 -8.24708,-4.13934 -8.24708,-6.82517 0,-0.94794 0.85315,-1.5483 2.11707,-1.5483 1.13752,0 2.46464,1.80109 3.94975,1.80109 1.04273,0 1.67469,-1.01114 1.67469,-1.6747 0,-1.5799 -3.98135,-2.05387 -5.08728,-2.05387 -2.55944,0 -6.288,0.63196 -6.288,3.91815 0,4.67651 8.37347,4.36053 8.37347,6.82517 0,1.26392 -1.35871,1.89588 -3.06501,1.89588 -1.16912,0 -2.59103,-1.89588 -4.17093,-1.89588 -1.10593,0 -1.73789,0.85315 -1.73789,1.6115 0,1.80109 4.04454,2.18026 5.40326,2.18026 3.00181,0 7.07795,-0.31598 7.07795,-4.23413 z"
         style="font-style:normal;font-variant:normal;font-weight:bold;font-stretch:normal;font-size:31.59800339px;font-family:'Accanthis ADF Std No3';-inkscape-font-specification:'Accanthis ADF Std No3, Bold';font-variant-ligatures:normal;font-variant-caps:normal;font-variant-numeric:normal;font-feature-settings:normal;text-align:center;writing-mode:lr-tb;text-anchor:middle;stroke:#ffffff;stroke-width:0.5;stroke-miterlimit:4;stroke-dasharray:none;stroke-opacity:1"
         id="path870" />
      <path
         d="m 245.50502,156.63505 c 0,-0.28438 -0.0632,-0.50557 -0.53716,-0.94794 h -1.16913 c -0.0632,0 -0.0948,-0.25278 -0.0948,-0.31598 v -7.67831 c 0,-2.21186 -1.6431,-4.32893 -4.42372,-4.32893 -1.86429,0 -3.2862,1.23232 -4.36053,2.46465 v -9.85858 c 0,-0.41078 0.12639,-0.85315 0.63196,-2.08547 -3.06501,0 -4.23413,1.89588 -6.50919,1.95908 l 2.08547,1.89588 v 17.63168 c 0,0.0632 -0.0632,0.31598 -0.12639,0.31598 h -1.20073 c -0.12639,0.15799 -0.47397,0.56877 -0.47397,0.94794 0,0.18959 0.0948,0.47397 0.44238,0.94794 h 6.41439 c 0.44237,-0.37917 0.56877,-0.69515 0.56877,-0.94794 0,-0.28438 -0.0632,-0.50557 -0.56877,-0.94794 h -1.13753 c -0.0632,0 -0.12639,-0.25278 -0.12639,-0.31598 v -7.10955 c 0.94794,-0.82155 2.52784,-2.21186 3.76016,-2.21186 1.13753,0 1.20073,1.16913 1.20073,2.05387 v 7.26754 c 0,0.0632 -0.0316,0.31598 -0.0948,0.31598 h -1.23232 c -0.12639,0.15799 -0.47397,0.56877 -0.47397,0.94794 0,0.18959 0.0948,0.47397 0.44237,0.94794 h 6.446 c 0.41077,-0.37917 0.53716,-0.69515 0.53716,-0.94794 z"
         style="font-style:normal;font-variant:normal;font-weight:bold;font-stretch:normal;font-size:31.59800339px;font-family:'Accanthis ADF Std No3';-inkscape-font-specification:'Accanthis ADF Std No3, Bold';font-variant-ligatures:normal;font-variant-caps:normal;font-variant-numeric:normal;font-feature-settings:normal;text-align:center;writing-mode:lr-tb;text-anchor:middle;stroke:#ffffff;stroke-width:0.5;stroke-miterlimit:4;stroke-dasharray:none;stroke-opacity:1"
         id="path872" />
      <path
         d="m 258.90256,151.42138 c 0,2.02227 -0.91634,4.58171 -2.93861,4.58171 -3.28619,0 -4.07614,-3.1282 -4.07614,-6.06681 0,-1.6431 0.66355,-4.64491 2.90701,-4.64491 3.50738,0 4.10774,2.97021 4.10774,6.13001 z m 4.07614,-0.78995 c 0,-3.63377 -2.90701,-7.26754 -7.64671,-7.26754 -4.7397,0 -7.61512,3.63377 -7.61512,7.26754 0,3.63377 2.87542,7.26754 7.61512,7.26754 4.7397,0 7.64671,-3.63377 7.64671,-7.26754 z"
         style="font-style:normal;font-variant:normal;font-weight:bold;font-stretch:normal;font-size:31.59800339px;font-family:'Accanthis ADF Std No3';-inkscape-font-specification:'Accanthis ADF Std No3, Bold';font-variant-ligatures:normal;font-variant-caps:normal;font-variant-numeric:normal;font-feature-settings:normal;text-align:center;writing-mode:lr-tb;text-anchor:middle;stroke:#ffffff;stroke-width:0.5;stroke-miterlimit:4;stroke-dasharray:none;stroke-opacity:1"
         id="path874" />
      <path
         d="m 276.50259,154.86556 c 0,-0.63196 -0.69516,-1.10593 -1.26392,-1.10593 -0.25278,0 -0.50557,0.0948 -0.66356,0.31598 -0.97954,1.35872 -1.45351,1.89588 -2.21186,1.89588 -1.70629,0 -1.80108,-1.99067 -1.80108,-3.25459 v -7.07795 h 2.65423 l 1.5799,-1.95908 h -4.23413 v -2.97021 c 0,-1.07433 0.28438,-1.6431 0.69515,-2.08547 -3.66537,0 -2.65423,4.96089 -5.37166,5.05568 l -1.5799,1.95908 h 2.43305 v 7.23594 c 0,2.68583 1.4851,5.02408 4.99248,5.02408 3.60217,0 4.7713,-2.81222 4.7713,-3.03341 z"
         style="font-style:normal;font-variant:normal;font-weight:bold;font-stretch:normal;font-size:31.59800339px;font-family:'Accanthis ADF Std No3';-inkscape-font-specification:'Accanthis ADF Std No3, Bold';font-variant-ligatures:normal;font-variant-caps:normal;font-variant-numeric:normal;font-feature-settings:normal;text-align:center;writing-mode:lr-tb;text-anchor:middle;stroke:#ffffff;stroke-width:0.5;stroke-miterlimit:4;stroke-dasharray:none;stroke-opacity:1"
         id="path876" />
    </g>
  </g>
</svg>
